# xmcd
#
# Track frame offsets:
#	150
#	14347
#	32952
#	53307
#	72693
#	90633
#	108447
#	124136
#	145511
#	154915
#	172160
#	193949
#	214089
#	233983
#
# Disc length: 3371 seconds
#
# Revision: 0
# Processed by: cddbd v1.5.2PL0 Copyright (c) Steve Scherf et al.
# Submitted via: EasyCDDAExtractor 12.0.4.1
#
DISCID=c90d290e
DTITLE=Zed Head - Mortal Man
DYEAR=2011
DGENRE=Blues Rock
TTITLE0=Texas Twister
TTITLE1=Fast Ford Freddy
TTITLE2=Shotgun
TTITLE3=Mortal Man
TTITLE4=Voodoo Love
TTITLE5=Cheapseats
TTITLE6=Cock of the Rock
TTITLE7=Good Lovin
TTITLE8=Front Porch
TTITLE9=The Big Smoke
TTITLE10=Till I Lost You
TTITLE11=Electraglide Shuffle
TTITLE12=Nice To Love You
TTITLE13=Kickstart
EXTD=
EXTT0=
EXTT1=
EXTT2=
EXTT3=
EXTT4=
EXTT5=
EXTT6=
EXTT7=
EXTT8=
EXTT9=
EXTT10=
EXTT11=
EXTT12=
EXTT13=
PLAYORDER=
